<?xml version="1.0" encoding="utf-8"?>
<!-- Generator: Adobe Illustrator 21.0.0, SVG Export Plug-In . SVG Version: 6.00 Build 0)  -->
<svg version="1.1" id="Calque_1" xmlns="http://www.w3.org/2000/svg" xmlns:xlink="http://www.w3.org/1999/xlink" x="0px" y="0px"
	 viewBox="0 0 512 512" style="enable-background:new 0 0 512 512;" xml:space="preserve">
<style type="text/css">
	.st0{fill:#FFFFFF;stroke:#000000;stroke-width:4;stroke-miterlimit:10;}
	.st1{fill:none;stroke:#000000;stroke-width:3;stroke-miterlimit:10;}
</style>
<g id="Fond_bouton">
	<path class="st0" d="M492.9,385H36.2c-6.3,0-11.4-2.7-11.4-6V262c0-3.3,5.1-6,11.4-6h456.6c6.3,0,11.4,2.7,11.4,6v116.9
		C504.3,382.3,499.2,385,492.9,385z"/>
</g>
<g id="Capa_1">
	<g>
		<path d="M294.1,313.7c2.1-0.8,3.6-2.8,3.6-5.1c0-3-2.5-5.4-5.4-5.4h-7.5v-19.2c0-5.8-4.4-10.6-9.9-11.3c-0.7-2.5-3-4.4-5.7-4.4
			h-10.8c-2.7,0-5,1.9-5.7,4.4c-5.6,0.8-9.9,5.6-9.9,11.3v19.2h-6.2c-3,0-5.4,2.5-5.4,5.4c0,2.4,1.5,4.4,3.6,5.1
			c-4.4,6.2-6.9,13.6-6.9,21.3c0,20.2,16.4,36.6,36.6,36.6s36.6-16.4,36.6-36.6C301,327.3,298.6,319.9,294.1,313.7z M258.4,271.7
			h10.8c1.3,0,2.5,1.1,2.5,2.5c0,1.3-1.1,2.5-2.5,2.5h-10.8c-1.3,0-2.5-1.1-2.5-2.5C255.9,272.7,257,271.7,258.4,271.7z
			 M246.2,283.9c0-3.9,2.8-7.2,6.6-7.8c0.8,2.3,3,4,5.6,4h10.8c2.6,0,4.8-1.7,5.6-4c3.7,0.7,6.6,3.9,6.6,7.8v19.2h-35L246.2,283.9
			L246.2,283.9z M236.6,306.6h7.9l0,0H283l0,0h9.3c1.1,0,2,0.9,2,2c0,1.1-0.9,2-2,2h-55.6c-1.1,0-2-0.9-2-2
			C234.7,307.4,235.5,306.6,236.6,306.6z M264.4,368c-18.3,0-33.1-14.8-33.1-33.1c0-7.6,2.6-15,7.5-20.9H290
			c4.8,5.9,7.5,13.3,7.5,20.9C297.5,353.2,282.7,368,264.4,368z"/>
		<path d="M289.9,326.7c0.3,0.7,0.9,1.2,1.7,1.2c0.2,0,0.3-0.1,0.5-0.1c0.9-0.3,1.4-1.3,1.1-2.2c-0.6-1.9-1.5-3.8-2.4-5.5
			c-0.5-0.8-1.5-1.1-2.4-0.7c-0.8,0.5-1.1,1.5-0.7,2.4C288.6,323.3,289.4,325,289.9,326.7z"/>
		<path d="M293,333.3c-1,0-1.7,0.8-1.7,1.7c0,14.8-12,26.8-26.8,26.8c-1,0-1.7,0.8-1.7,1.7c0,0.9,0.8,1.7,1.7,1.7
			c16.7,0,30.3-13.6,30.3-30.3C294.7,334,293.9,333.3,293,333.3z"/>
	</g>
</g>
<line class="st1" x1="242.2" y1="363.5" x2="234.5" y2="376.9"/>
<line class="st1" x1="286.5" y1="363.5" x2="294.3" y2="376.9"/>
</svg>
